<?xml version="1.0"?><svg xmlns="http://www.w3.org/2000/svg" viewBox="0 0 241 120" width="482" height="240" xmlns:c2pa="http://c2pa.org/manifest"><metadata><c2pa:manifest>AAAWgmp1bWIAAAAeanVtZGMycGEAEQAQgAAAqgA4m3EDYzJwYQAAABZcanVtYgAAAEdqdW1kYzJtYQARABCAAACqADibcQN1cm46YzJwYTo3Y2UxZTIxNy0zODE3LTQ1NDktOGFhYi00NWE5ZjYzYmE0ZmUAAAADl2p1bWIAAAApanVtZGMyYXMAEQAQgAAAqgA4m3EDYzJwYS5hc3NlcnRpb25zAAAAALxqdW1iAAAARGp1bWRjYm9yABEAEIAAAKoAOJtxE2MycGEuaW5ncmVkaWVudC52MwAAAAAYYzJzaJyLGLCntmrQX61dtscNZ/0AAABwY2JvcqNpZGM6Zm9ybWF0bWltYWdlL3N2Zyt4bWxqaW5zdGFuY2VJRHgseG1wOmlpZDoxNzAwYTc4ZC0zNWVmLTRmMWYtOGY0OS03NTA5MGMwYzM5MzlscmVsYXRpb25zaGlwaHBhcmVudE9mAAAB4mp1bWIAAABBanVtZGNib3IAEQAQgAAAqgA4m3ETYzJwYS5hY3Rpb25zLnYyAAAAABhjMnNomT5olfRvQ4SEgBVJJXiSoQAAAZljYm9yomdhY3Rpb25zgqJmYWN0aW9ua2MycGEub3BlbmVkanBhcmFtZXRlcnOha2luZ3JlZGllbnRzgaJjdXJseC1zZWxmI2p1bWJmPWMycGEuYXNzZXJ0aW9ucy9jMnBhLmluZ3JlZGllbnQudjNkaGFzaFggpmLOx93QKgbypbD0jvOQnbcL9uKeP3OReVsLtvhN3mWkZmFjdGlvbngdY29tLmFudGhyb3BpYy5jbGF1ZGUucHJvdmlkZWRqcGFyYW1ldGVyc6F4H2NvbS5hbnRocm9waWMub3JpZ2luLWNvbmZpZGVuY2VndW5rbm93bmtkZXNjcmlwdGlvbnhmQ2xhdWRlIHByb3ZpZGVkIHRoaXMgZmlsZSBhdCB0aGUgcmVxdWVzdCBvZiBhIHVzZXIgYW5kIG1heSBoYXZlIGNyZWF0ZWQgb3IgbW9kaWZpZWQgdGhlIGZpbGUgY29udGVudHMubXNvZnR3YXJlQWdlbnShZG5hbWVmQ2xhdWRlcmFsbEFjdGlvbnNJbmNsdWRlZPUAAADIanVtYgAAAEBqdW1kY2JvcgARABCAAACqADibcRNjMnBhLmhhc2guZGF0YQAAAAAYYzJzaDSTQSTs7NWL8VV59ifVnAMAAACAY2JvcqVjYWxnZnNoYTI1NmNwYWRNAAAAAAAAAAAAAAAAAGRoYXNoWCBRNLu4tkg6n/z5LAzVLoKGTiJufK6azwxNa+4hTAG90mRuYW1lbmp1bWJmIG1hbmlmZXN0amV4Y2x1c2lvbnOBomVzdGFydBirZmxlbmd0aBkeBAAAAj5qdW1iAAAAJ2p1bWRjMmNsABEAEIAAAKoAOJtxA2MycGEuY2xhaW0udjIAAAACD2Nib3KlY2FsZ2ZzaGEyNTZpc2lnbmF0dXJleE1zZWxmI2p1bWJmPS9jMnBhL3VybjpjMnBhOjdjZTFlMjE3LTM4MTctNDU0OS04YWFiLTQ1YTlmNjNiYTRmZS9jMnBhLnNpZ25hdHVyZWppbnN0YW5jZUlEeCx4bXA6aWlkOmFhZGRlN2Y2LWVhYTgtNDU2Yi1iYzQ1LTk3NThiOWJmNzQ4ZnJjcmVhdGVkX2Fzc2VydGlvbnODomN1cmx4LXNlbGYjanVtYmY9YzJwYS5hc3NlcnRpb25zL2MycGEuaW5ncmVkaWVudC52M2RoYXNoWCCmYs7H3dAqBvKlsPSO85Cdtwv24p4/c5F5Wwu2+E3eZaJjdXJseCpzZWxmI2p1bWJmPWMycGEuYXNzZXJ0aW9ucy9jMnBhLmFjdGlvbnMudjJkaGFzaFgg9BfuxDxi3Hhn9nPisG+TndEdjSRaOfQR8wkOPoA03luiY3VybHgpc2VsZiNqdW1iZj1jMnBhLmFzc2VydGlvbnMvYzJwYS5oYXNoLmRhdGFkaGFzaFggg2n251BQ/5gwEGuUi5aKcyxhaMV94fjtDGr35G7xbSR0Y2xhaW1fZ2VuZXJhdG9yX2luZm+jZG5hbWVvQW50aHJvcGljIEZpbGVzZ3ZlcnNpb25lMS4wLjBrc3BlY1ZlcnNpb25lMi40LjAAABA4anVtYgAAAChqdW1kYzJjcwARABCAAACqADibcQNjMnBhLnNpZ25hdHVyZQAAABAIY2JvctKEWQISogEmGCFZAgowggIGMIIBjaADAgECAhRA5aAK7sI50L64g/oGQgU9Z1UTADAKBggqhkjOPQQDAzBJMRcwFQYDVQQKEw5BbnRocm9waWMsIFBCQzEuMCwGA1UEAxMlQW50aHJvcGljIENvbnRlbnQgQ3JlZGVudGlhbHMgUm9vdCBDQTAeFw0yNjA4MDcxODQzNTZaFw0yODA4MDYxOTQzNTZaMEQxFzAVBgNVBAoTDkFudGhyb3BpYywgUEJDMSkwJwYDVQQDEyBBbnRocm9waWMgQ2xhdWRlIENvbnRlbnQgU2lnbmluZzBZMBMGByqGSM49AgEGCCqGSM49AwEHA0IABJh6CmvLUBgFFNU0vUKlOVtE6djd17L5SuwX0LemFisBM3dkd/3cyjxFA3Qo5S46fX0/ihY0VZ7mfb9KF703t5OjWDBWMA4GA1UdDwEB/wQEAwIHgDAVBgNVHSUEDjAMBgorBgEEAYPoXgIBMAwGA1UdEwEB/wQCMAAwHwYDVR0jBBgwFoAUzlHiBIFOZFsj+OPEz5o+nMHXXMIwCgYIKoZIzj0EAwMDZwAwZAIwMXMdFJ4BetLLVY7ORuE9noqbbAZOZn/aArXyTwFAZfKrPzxF2vPoJNf1+UCdg1XGAjBwX1zd9WGqYkqmL5SFqw1QySjr1zJfpJM9+1rdDwSPLMOPOjKuiXjoU/pUUeG9RwmhY3BhZFkNngAAAAAAAAAAAAAAAAAAAAAAAAAAAAAAAAAAAAAAAAAAAAAAAAAAAAAAAAAAAAAAAAAAAAAAAAAAAAAAAAAAAAAAAAAAAAAAAAAAAAAAAAAAAAAAAAAAAAAAAAAAAAAAAAAAAAAAAAAAAAAAAAAAAAAAAAAAAAAAAAAAAAAAAAAAAAAAAAAAAAAAAAAAAAAAAAAAAAAAAAAAAAAAAAAAAAAAAAAAAAAAAAAAAAAAAAAAAAAAAAAAAAAAAAAAAAAAAAAAAAAAAAAAAAAAAAAAAAAAAAAAAAAAAAAAAAAAAAAAAAAAAAAAAAAAAAAAAAAAAAAAAAAAAAAAAAAAAAAAAAAAAAAAAAAAAAAAAAAAAAAAAAAAAAAAAAAAAAAAAAAAAAAAAAAAAAAAAAAAAAAAAAAAAAAAAAAAAAAAAAAAAAAAAAAAAAAAAAAAAAAAAAAAAAAAAAAAAAAAAAAAAAAAAAAAAAAAAAAAAAAAAAAAAAAAAAAAAAAAAAAAAAAAAAAAAAAAAAAAAAAAAAAAAAAAAAAAAAAAAAAAAAAAAAAAAAAAAAAAAAAAAAAAAAAAAAAAAAAAAAAAAAAAAAAAAAAAAAAAAAAAAAAAAAAAAAAAAAAAAAAAAAAAAAAAAAAAAAAAAAAAAAAAAAAAAAAAAAAAAAAAAAAAAAAAAAAAAAAAAAAAAAAAAAAAAAAAAAAAAAAAAAAAAAAAAAAAAAAAAAAAAAAAAAAAAAAAAAAAAAAAAAAAAAAAAAAAAAAAAAAAAAAAAAAAAAAAAAAAAAAAAAAAAAAAAAAAAAAAAAAAAAAAAAAAAAAAAAAAAAAAAAAAAAAAAAAAAAAAAAAAAAAAAAAAAAAAAAAAAAAAAAAAAAAAAAAAAAAAAAAAAAAAAAAAAAAAAAAAAAAAAAAAAAAAAAAAAAAAAAAAAAAAAAAAAAAAAAAAAAAAAAAAAAAAAAAAAAAAAAAAAAAAAAAAAAAAAAAAAAAAAAAAAAAAAAAAAAAAAAAAAAAAAAAAAAAAAAAAAAAAAAAAAAAAAAAAAAAAAAAAAAAAAAAAAAAAAAAAAAAAAAAAAAAAAAAAAAAAAAAAAAAAAAAAAAAAAAAAAAAAAAAAAAAAAAAAAAAAAAAAAAAAAAAAAAAAAAAAAAAAAAAAAAAAAAAAAAAAAAAAAAAAAAAAAAAAAAAAAAAAAAAAAAAAAAAAAAAAAAAAAAAAAAAAAAAAAAAAAAAAAAAAAAAAAAAAAAAAAAAAAAAAAAAAAAAAAAAAAAAAAAAAAAAAAAAAAAAAAAAAAAAAAAAAAAAAAAAAAAAAAAAAAAAAAAAAAAAAAAAAAAAAAAAAAAAAAAAAAAAAAAAAAAAAAAAAAAAAAAAAAAAAAAAAAAAAAAAAAAAAAAAAAAAAAAAAAAAAAAAAAAAAAAAAAAAAAAAAAAAAAAAAAAAAAAAAAAAAAAAAAAAAAAAAAAAAAAAAAAAAAAAAAAAAAAAAAAAAAAAAAAAAAAAAAAAAAAAAAAAAAAAAAAAAAAAAAAAAAAAAAAAAAAAAAAAAAAAAAAAAAAAAAAAAAAAAAAAAAAAAAAAAAAAAAAAAAAAAAAAAAAAAAAAAAAAAAAAAAAAAAAAAAAAAAAAAAAAAAAAAAAAAAAAAAAAAAAAAAAAAAAAAAAAAAAAAAAAAAAAAAAAAAAAAAAAAAAAAAAAAAAAAAAAAAAAAAAAAAAAAAAAAAAAAAAAAAAAAAAAAAAAAAAAAAAAAAAAAAAAAAAAAAAAAAAAAAAAAAAAAAAAAAAAAAAAAAAAAAAAAAAAAAAAAAAAAAAAAAAAAAAAAAAAAAAAAAAAAAAAAAAAAAAAAAAAAAAAAAAAAAAAAAAAAAAAAAAAAAAAAAAAAAAAAAAAAAAAAAAAAAAAAAAAAAAAAAAAAAAAAAAAAAAAAAAAAAAAAAAAAAAAAAAAAAAAAAAAAAAAAAAAAAAAAAAAAAAAAAAAAAAAAAAAAAAAAAAAAAAAAAAAAAAAAAAAAAAAAAAAAAAAAAAAAAAAAAAAAAAAAAAAAAAAAAAAAAAAAAAAAAAAAAAAAAAAAAAAAAAAAAAAAAAAAAAAAAAAAAAAAAAAAAAAAAAAAAAAAAAAAAAAAAAAAAAAAAAAAAAAAAAAAAAAAAAAAAAAAAAAAAAAAAAAAAAAAAAAAAAAAAAAAAAAAAAAAAAAAAAAAAAAAAAAAAAAAAAAAAAAAAAAAAAAAAAAAAAAAAAAAAAAAAAAAAAAAAAAAAAAAAAAAAAAAAAAAAAAAAAAAAAAAAAAAAAAAAAAAAAAAAAAAAAAAAAAAAAAAAAAAAAAAAAAAAAAAAAAAAAAAAAAAAAAAAAAAAAAAAAAAAAAAAAAAAAAAAAAAAAAAAAAAAAAAAAAAAAAAAAAAAAAAAAAAAAAAAAAAAAAAAAAAAAAAAAAAAAAAAAAAAAAAAAAAAAAAAAAAAAAAAAAAAAAAAAAAAAAAAAAAAAAAAAAAAAAAAAAAAAAAAAAAAAAAAAAAAAAAAAAAAAAAAAAAAAAAAAAAAAAAAAAAAAAAAAAAAAAAAAAAAAAAAAAAAAAAAAAAAAAAAAAAAAAAAAAAAAAAAAAAAAAAAAAAAAAAAAAAAAAAAAAAAAAAAAAAAAAAAAAAAAAAAAAAAAAAAAAAAAAAAAAAAAAAAAAAAAAAAAAAAAAAAAAAAAAAAAAAAAAAAAAAAAAAAAAAAAAAAAAAAAAAAAAAAAAAAAAAAAAAAAAAAAAAAAAAAAAAAAAAAAAAAAAAAAAAAAAAAAAAAAAAAAAAAAAAAAAAAAAAAAAAAAAAAAAAAAAAAAAAAAAAAAAAAAAAAAAAAAAAAAAAAAAAAAAAAAAAAAAAAAAAAAAAAAAAAAAAAAAAAAAAAAAAAAAAAAAAAAAAAAAAAAAAAAAAAAAAAAAAAAAAAAAAAAAAAAAAAAAAAAAAAAAAAAAAAAAAAAAAAAAAAAAAAAAAAAAAAAAAAAAAAAAAAAAAAAAAAAAAAAAAAAAAAAAAAAAAAAAAAAAAAAAAAAAAAAAAAAAAAAAAAAAAAAAAAAAAAAAAAAAAAAAAAAAAAAAAAAAAAAAAAAAAAAAAAAAAAAAAAAAAAAAAAAAAAAAAAAAAAAAAAAAAAAAAAAAAAAAAAAAAAAAAAAAAAAAAAAAAAAAAAAAAAAAAAAAAAAAAAAAAAAAAAAAAAAAAAAAAAAAAAAAAAAAAAAAAAAAAAAAAAAAAAAAAAAAAAAAAAAAAAAAAAAAAAAAAAAAAAAAAAAAAAAAAAAAAAAAAAAAAAAAAAAAAAAAAAAAAAAAAAAAAAAAAAAAAAAAAAAAAAAAAAAAAAAAAAAAAAAAAAAAAAAAAAAAAAAAAAAAAAAAAAAAAAAAAAAAAAAAAAAAAAAAAAAAAAAAAAAAAAAAAAAAAAAAAAAAAAAAAAAAAAAAAAAAAAAAAAAAAAAAAAAAAAAAAAAAAAAAAAAAAAAAAAAAAAAAAAAAAAAAAAAAAAAAAAAAAAAAAAAAAAAAAAAAAAAAAAAAAAAAAAAAAAAAAAAAAAAAAAAAAAAAAAAAAAAAAAAAAAAAAAAAAAAAAAAAAAAAAAAAAAAAAAAAAAAAAAAAAAAAAAAAAAAAAAAAAAAAAAAAAAAAAAAAAAAAAAAAAAAAAAAAAAAAAAAAAAAAAAAAAAAAAAAAAAAAAAAAAAAAAAAAAAAAAAAAAAAAAAAAAAAAAAAAAAAAAAAAAAAAAAAAAAAAAAAAAAAAAAAAAAAAAAAAAAAAAAAAAAAAAAAAAAAAAAAAAAAAAAAAAAAAAAAAAAAAAAAAAAAAAAAAAAAAAAAAAAAAAAAAAAAAAAAAAAAAAAAAAAAAAAAAAAAAAAAAAAAAAAAAAAAAAAAAAAAAAAAAAAAAAAAAAAAAAAAAAAAAAAAAAAAAAAAAAAAAAAAAAAAAAAAAAAAAAAAAAAAAAAAAAAAAAAAAAAAAAAAAAAAAAAAAAAAAAAAAAAAAAAAAAAAAAAAAAAAAAAAAAAAAAAAAAAAAAAAAAAAAAAAAAAAAAAAAAAAAAAAAAAAAAAAAAAAAAAAAAAAAAAAAAAAAAAAAAAAAAAAAAAAAAAAAAAAAAAAAAAAAAAAAAAAAAAAAAAAAAAAAAAAAAAAAAAAAAAAAAAAAAAAAAAAAAAAAAAAAAAAAAAAAAAAAAAAAAAAAAAAAAAAAAAAAAAAAAAAAAAAAAAAAAAAAAAAAAAAAAAAAAAAAAAAAAAAAAAAAAAAAAAAAAAAAAAAAAAAAAAAAAAAAAAAAAAAAAAAAAAAAAAAAAAAAAAAAAAAAAAAAAAAAAAAAAAAAAAAAAAAAAAAAAAAAAAAAAAAAAAAAAAAAAAAAAAAAAAAAAAAAAAAAAAAAAAAAAAAAAAAAAAAAAAAAAAAAAAAAAAAAAAAAAAAAAAAAAAAAAAAAAAAAAAAAAAAAAAAAAAAAAAAAAAAAAAAAAAAAAAAAAAAAAAAAAAAAAAAAAAAAAAAAAAAAAAAAAAAAAAAAAAAAAAAAAAAAAAAAAAAAAAAAAAAAAAAAAAAAAAAAAAAAAAAAAAAAAAAAAAAAAAAAAAAAAAAAAAAAAAAAAAAAAAAAAAAAAAAAAAAAAAAAAAAAAAAAAAAAAAAAAAAAAAAAAAAAAAAAAAAAAAAAAAAAAAAAAAAAAAAAAAPZYQGqhUGElMCBi5Nq48H3Xy/9EzKmcUO7S50T1BFC6vGrFI1SvGukg1gT/+UPZLucbvFqdA5SRJhP7fV5nkTgcs/g=</c2pa:manifest></metadata><defs><clipPath id="dc"><path d="M50 4 C50 4 12 52 12 78 A38 38 0 0 0 88 78 C88 52 50 4 50 4 Z"></path></clipPath></defs><g clip-path="url(#dc)"><g transform="rotate(-16 50 70)"><rect x="-20" y="0" width="140" height="22" fill="#0a303e"></rect><rect x="-20" y="26" width="140" height="10" fill="#006786"></rect><rect x="-20" y="40" width="140" height="11" fill="#0088b0"></rect><rect x="-20" y="55" width="140" height="12" fill="#006786"></rect><rect x="-20" y="71" width="140" height="13" fill="#0088b0"></rect><rect x="-20" y="88" width="140" height="14" fill="#006786"></rect><rect x="-20" y="106" width="140" height="30" fill="#004961"></rect></g></g><path transform="translate(111.84 90.16)" fill="#201e1d" d="M48.70-6.34L48.70-6.34Q48.70-2.69 46.82 0.06Q44.93 2.82 41.73 4.35Q38.53 5.89 34.56 5.89Q30.59 5.89 27.39 4.35Q24.19 2.82 22.30 0.06Q20.42-2.69 20.42-6.34L20.42-6.34Q20.42-9.86 22.30-12.48Q24.19-15.10 27.39-16.51Q30.59-17.92 34.56-17.92Q38.53-17.92 41.73-16.51Q44.93-15.10 46.82-12.48Q48.70-9.86 48.70-6.34ZM34.56-44.99L33.41-42.88Q31.87-38.85 29.06-34.78Q26.24-30.72 22.40-26.94Q18.56-23.17 13.92-19.94Q9.28-16.70 4.16-14.27L4.16-14.27Q3.58-13.95 3.33-14.14L3.33-14.14L2.37-15.17Q1.98-15.55 2.30-15.94L2.30-15.94Q8-19.71 12.67-24.26Q17.34-28.80 20.80-33.66L20.80-33.66Q24.26-38.40 26.18-43.07L26.18-43.07L24.64-43.07Q22.78-43.07 20.80-43.01Q18.82-42.94 17.18-42.91Q15.55-42.88 14.91-42.82L14.91-42.82Q14.02-42.75 12.51-42.46Q11.01-42.18 10.05-41.86L10.05-41.86Q8.64-42.43 7.23-43.33Q5.82-44.22 4.80-45.12L4.80-45.12Q4.48-45.50 4.61-45.89L4.61-45.89L5.12-46.66Q6.53-46.46 8.13-46.37Q9.73-46.27 10.94-46.27L10.94-46.27L13.31-46.27Q14.91-46.27 16.96-46.30Q19.01-46.34 21.09-46.40Q23.17-46.46 24.90-46.53L24.90-46.53Q26.50-46.59 27.39-46.66L27.39-46.66L29.76-47.81Q30.34-48.13 30.98-47.81L30.98-47.81Q31.68-47.49 32.80-46.88Q33.92-46.27 34.37-45.89L34.37-45.89Q34.88-45.57 34.56-44.99L34.56-44.99ZM46.78-17.60L43.14-17.60Q43.01-18.43 42.91-19.84Q42.82-21.25 42.72-22.85Q42.62-24.45 42.59-25.92Q42.56-27.39 42.56-28.42L42.56-28.42L42.56-48.90Q41.79-49.92 40.42-50.88Q39.04-51.84 37.38-52.42L37.38-52.42L38.02-54.40Q38.14-54.78 38.91-54.78L38.91-54.78Q40.26-54.72 42.02-54.43Q43.78-54.14 45.44-53.76Q47.10-53.38 48.13-52.86L48.13-52.86Q49.02-52.54 48.96-51.33L48.96-51.33L48.77-47.74L48.77-33.73L52.67-33.92L54.72-35.20Q56.13-35.26 57.86-35.17Q59.58-35.07 60.42-34.88L60.42-34.88Q61.57-34.62 61.63-33.60L61.63-33.60Q61.70-32.64 61.44-31.84Q61.18-31.04 60.86-30.72L60.86-30.72Q60.61-30.46 60.13-30.34Q59.65-30.21 59.20-30.21L59.20-30.21L48.77-29.95Q48.77-28.10 48.51-25.86L48.51-25.86Q48.26-23.49 47.81-21.31Q47.36-19.14 46.78-17.60L46.78-17.60ZM42.30-6.34Q42.30-9.79 40.06-11.74Q37.82-13.70 34.56-13.70Q31.30-13.70 29.06-11.74Q26.82-9.79 26.82-6.34Q26.82-2.88 29.06-0.96Q31.30 0.96 34.56 0.96Q37.82 0.96 40.06-0.96Q42.30-2.88 42.30-6.34Z M111.23-21.44L113.79-22.59Q115.07-22.53 116.54-22.37Q118.02-22.21 119.39-21.98Q120.77-21.76 121.54-21.44L121.54-21.44Q122.50-21.12 122.50-20.16L122.50-20.16Q122.50-19.14 121.92-18.27Q121.34-17.41 120.77-17.15L120.77-17.15Q120-17.28 118.50-17.34Q116.99-17.41 115.49-17.44Q113.98-17.47 112.96-17.47L112.96-17.47L109.12-17.47Q106.30-17.47 102.59-17.41L102.59-17.41Q99.46-17.34 96.06-17.34L96.06-17.34L96.06-7.94Q96.06-6.53 95.90-4.61Q95.74-2.69 95.49-0.64Q95.23 1.41 94.85 3.26Q94.46 5.12 94.02 6.46L94.02 6.46L90.50 6.46Q90.37 5.44 90.27 3.81Q90.18 2.18 90.08 0.32Q89.98-1.54 89.95-3.23Q89.92-4.93 89.92-6.02L89.92-6.02L89.92-17.28Q88.51-17.22 87.10-17.22L87.10-17.22Q83.46-17.15 80.80-17.09Q78.14-17.02 77.25-16.96L77.25-16.96Q76.42-16.90 75.10-16.70Q73.79-16.51 72.48-16.22Q71.17-15.94 70.34-15.68L70.34-15.68Q68.48-16.38 66.66-17.50Q64.83-18.62 63.55-19.78L63.55-19.78Q63.17-20.10 63.36-20.48L63.36-20.48L63.87-21.50Q65.66-21.25 67.81-21.06Q69.95-20.86 71.62-20.80L71.62-20.80L74.88-20.80Q77.18-20.80 80.45-20.83Q83.71-20.86 87.46-20.93Q91.20-20.99 94.98-21.06Q98.75-21.12 102.08-21.18Q105.41-21.25 107.84-21.31Q110.27-21.38 111.23-21.44L111.23-21.44ZM90.69-47.49L90.69-47.49Q89.73-49.02 87.49-50.18L87.49-50.18L88.45-51.78Q88.70-52.16 89.47-52.10L89.47-52.10Q90.82-51.97 92.38-51.58Q93.95-51.20 95.39-50.75Q96.83-50.30 97.60-49.86L97.60-49.86Q98.62-49.41 98.62-48.38L98.62-48.38Q98.56-47.81 98.43-47.39Q98.30-46.98 98.18-46.72L98.18-46.72Q96.90-44.48 95.17-42.30L95.17-42.30L106.62-36.93L111.23-36.42Q112.38-35.71 113.76-34.69Q115.14-33.66 115.84-32.96L115.84-32.96Q116.93-31.94 116.93-31.10L116.93-31.10Q116.86-30.34 116.19-29.66Q115.52-28.99 114.75-28.93L114.75-28.93Q114.37-28.86 113.79-29.06Q113.22-29.25 112.70-29.50L112.70-29.50L92.54-39.42Q92.10-38.98 91.65-38.59L91.65-38.59Q87.55-34.75 82.14-31.68Q76.74-28.61 70.40-26.50L70.40-26.50Q69.89-26.30 69.57-26.50L69.57-26.50L68.74-27.58Q68.61-27.71 68.67-27.90L68.67-27.90Q68.67-28.10 68.99-28.22L68.99-28.22Q74.11-30.85 78.34-33.98Q82.56-37.12 85.70-40.54Q88.83-43.97 90.69-47.49Z"></path></svg>